<?xml version="1.0" encoding="UTF-8"?>
<svg version="1.1" xmlns="http://www.w3.org/2000/svg" width="1024" height="1024">
<path d="M0 0 C3.06031381 0.70557235 6.12221478 1.40225869 9.1875 2.0859375 C12.03118953 3.0101366 13.26491833 3.60476941 15 6 C15.56748461 9.27879995 15.76947071 11.69313963 14.03027344 14.64697266 C9.43675283 20.19981586 3.8434992 23.49462556 -2.3125 27.125 C-12.7699186 33.47180057 -22.49183162 40.31942307 -32 48 C-33.10261951 48.87791206 -34.20547054 49.75553344 -35.30859375 50.6328125 C-38.93498927 53.55126626 -42.42511356 56.40830402 -45.671875 59.75 C-48 62 -48 62 -50 62 C-50 62.66 -50 63.32 -50 64 C-50.66 64 -51.32 64 -52 64 C-52 64.66 -52 65.32 -52 66 C-52.66 66 -53.32 66 -54 66 C-54 66.66 -54 67.32 -54 68 C-54.66 68 -55.32 68 -56 68 C-56.38865234 68.88558594 -56.38865234 68.88558594 -56.78515625 69.7890625 C-58.09174716 72.16697393 -59.44545731 73.54447428 -61.4375 75.375 C-98.34699249 111.34497813 -119.05097364 165.54162464 -119.97998047 216.43164062 C-120.16993322 240.80118867 -116.76986107 264.87678696 -109 288 C-108.71141113 288.85899902 -108.42282227 289.71799805 -108.12548828 290.60302734 C-101.68486056 309.34668217 -92.99184238 327.16749942 -81 343 C-80.59346191 343.54640137 -80.18692383 344.09280273 -79.76806641 344.65576172 C-72.50134331 354.39555501 -64.42279113 363.25408389 -56 372 C-55.2471875 372.7940625 -54.494375 373.588125 -53.71875 374.40625 C-49.38349224 378.88364736 -44.70190154 382.82376817 -39.83984375 386.71875 C-38.00096157 388.19592633 -36.17921177 389.6947954 -34.37890625 391.21875 C-26.98242658 397.46124696 -19.10707242 402.74431212 -11 408 C-10.01 408.66 -9.02 409.32 -8 410 C-8.38776918 413.48992265 -9.88429692 415.08553359 -12.390625 417.4296875 C-15.79842651 420.75477538 -18.86012057 424.42380978 -22 428 C-24.93195847 425.08518748 -27.83427777 422.14533963 -30.71484375 419.1796875 C-38.81038825 410.89582984 -46.95008917 403.13473807 -56.28613281 396.26953125 C-58.02035758 394.98492031 -59.72579171 393.66825143 -61.4296875 392.34375 C-92.74847058 368.29307554 -129.3322285 353.1878268 -168 346 C-169.18078125 345.76667969 -170.3615625 345.53335937 -171.578125 345.29296875 C-178.27525731 344.09950543 -185.03021004 343.61600304 -191.8125 343.1875 C-192.69695801 343.12208008 -193.58141602 343.05666016 -194.49267578 342.98925781 C-200.44029711 342.68195096 -204.6177597 343.37819202 -210 346 C-212.8501947 350.27529205 -212.36811969 353.99037124 -212 359 C-211.58184478 361.97514011 -211.58184478 361.97514011 -210 364 C-205.89790974 365.64634127 -202.09155873 366.34247841 -197.703125 366.7109375 C-196.50647217 366.81881592 -195.30981934 366.92669434 -194.0769043 367.0378418 C-192.81402588 367.149104 -191.55114746 367.26036621 -190.25 367.375 C-139.5846939 372.31620344 -91.08659048 395.71026239 -55.59375 432.40625 C-53.91304421 434.1519602 -53.91304421 434.1519602 -51.4375 436 C-48.42283326 438.47357271 -46.04842564 441.30797911 -43.55078125 444.29296875 C-42.09320225 446.10394589 -42.09320225 446.10394589 -40 447 C-40 447.66 -40 448.32 -40 449 C-39.46375 449.268125 -38.9275 449.53625 -38.375 449.8125 C-36 451 -36 451 -33.1875 452.6875 C-29.07746206 454.37986856 -27.25223095 454.31965788 -23 453 C-13.46011912 446.68744052 -5.59485129 436.05542014 1.66015625 427.328125 C3 426 3 426 5 426 C5.33 425.01 5.66 424.02 6 423 C7.7421875 421.28125 7.7421875 421.28125 9.875 419.5 C12.85384531 416.99734679 12.85384531 416.99734679 15.6328125 414.28125 C17 413 17 413 19 413 C19 412.34 19 411.68 19 411 C20.98311822 409.26744525 22.9720018 407.65715367 25.0625 406.0625 C25.69446289 405.57523438 26.32642578 405.08796875 26.97753906 404.5859375 C28.97914975 403.04942728 30.98904489 401.52425207 33 400 C33.6089209 399.53319824 34.2178418 399.06639648 34.84521484 398.58544922 C73.82113494 368.76658639 122.39467823 347.27335089 172 346 C173.19625 345.96003906 174.3925 345.92007812 175.625 345.87890625 C196.03517685 345.52340112 223.84738065 345.34136037 242.0625 355.75 C244.73535364 358.85395906 244.75588 360.91912737 245 365 C244.51207817 368.07496585 243.63358122 370.97493634 242.6875 373.9375 C242.41897217 374.79867432 242.15044434 375.65984863 241.8737793 376.54711914 C234.61358358 399.06357769 224.48269709 421.49775532 211 441 C210.56574707 441.63357422 210.13149414 442.26714844 209.68408203 442.91992188 C201.50099708 454.82955036 192.85250131 465.98927567 183.10546875 476.67578125 C181.26022445 478.71273925 179.4691833 480.78270847 177.6875 482.875 C170.3477243 491.26573665 162.41336763 498.9541395 153.67578125 505.875 C151.9592491 507.23820217 150.26630131 508.63196233 148.60546875 510.0625 C110.46247698 542.73933074 61.36053743 561.65242153 12 568 C10.88854614 568.1546875 10.88854614 568.1546875 9.75463867 568.3125 C0.66277022 569.42090238 -8.54301312 569.24118218 -17.6875 569.25 C-19.05603119 569.25250763 -19.05603119 569.25250763 -20.45220947 569.25506592 C-35.51645893 569.25672035 -50.03713935 568.27815278 -64.85375977 565.45654297 C-65.81854248 565.27494629 -66.7833252 565.09334961 -67.77734375 564.90625 C-68.65124756 564.73673828 -69.52515137 564.56722656 -70.42553711 564.39257812 C-74.32125377 563.7985229 -78.06626491 563.87102508 -82 564 C-82 563.34 -82 562.68 -82 562 C-82.66193359 561.81002441 -83.32386719 561.62004883 -84.00585938 561.42431641 C-125.17075906 549.48989521 -167.05066598 530.73359903 -197.46826172 499.55102539 C-199.26481083 497.73185477 -201.16280529 496.07539893 -203.125 494.4375 C-206.50814781 491.52369062 -209.20483099 488.47507499 -212 485 C-213.6611388 483.32782374 -215.32840968 481.66172843 -217 480 C-243.88295663 451.80678162 -262.85297983 417.79203067 -275.6875 381.1875 C-276.026604 380.22126709 -276.36570801 379.25503418 -276.71508789 378.25952148 C-278.08594877 374.21884094 -279 371.32209667 -279 367 C-279.99 367 -280.98 367 -282 367 C-281.67 366.01 -281.34 365.02 -281 364 C-281.37166888 361.35470103 -281.37166888 361.35470103 -282.109375 358.3828125 C-282.36831543 357.23401611 -282.62725586 356.08521973 -282.89404297 354.90161133 C-283.3177417 353.03218872 -283.3177417 353.03218872 -283.75 351.125 C-300.22309632 275.2340603 -285.62739356 194.5085759 -244 129 C-240.8332617 124.20547903 -237.47249474 119.57653836 -234 115 C-233.38769531 114.18789063 -232.77539062 113.37578125 -232.14453125 112.5390625 C-230.45614567 110.33682044 -228.73631609 108.1646074 -227 106 C-226.33742188 105.16339844 -225.67484375 104.32679688 -224.9921875 103.46484375 C-214.95307493 90.96093114 -203.8345133 77.7041442 -191 68 C-190.34 68 -189.68 68 -189 68 C-189 67.34 -189 66.68 -189 66 C-187.59814453 64.69067383 -187.59814453 64.69067383 -185.6328125 63.20703125 C-184.91730225 62.66280518 -184.20179199 62.1185791 -183.46459961 61.55786133 C-182.69253174 60.98189209 -181.92046387 60.40592285 -181.125 59.8125 C-180.34068604 59.22170654 -179.55637207 58.63091309 -178.74829102 58.0222168 C-173.24639391 53.89337661 -167.7408437 49.79274959 -162 46 C-161.47245117 45.649375 -160.94490234 45.29875 -160.40136719 44.9375 C-122.20449121 19.74245757 -47.10548706 -15.70182902 0 0 Z " fill="#604EEC" transform="translate(533,225)"/>
<path d="M0 0 C0.66 0 1.32 0 2 0 C3.5859375 1.828125 3.5859375 1.828125 5.375 4.25 C7.22633203 6.7456282 8.99923877 8.99925747 11.2265625 11.171875 C13 13 13 13 13 15 C13.61875 15.2475 14.2375 15.495 14.875 15.75 C17.35068687 17.20628639 17.95125002 18.37812506 19 21 C19.66 21 20.32 21 21 21 C21 21.66 21 22.32 21 23 C21.56976563 23.23847656 22.13953125 23.47695313 22.7265625 23.72265625 C25.4801136 25.26975455 27.21438669 27.13309161 29.375 29.4375 C35.42981589 35.61715745 42.10054411 40.80161336 49 46 C49.91652344 46.69996094 50.83304687 47.39992188 51.77734375 48.12109375 C58.94728091 53.47967836 66.48697584 58.20422152 74.12646484 62.85546875 C75.75445161 63.84999598 77.37231392 64.86105972 78.98828125 65.875 C92.34200796 74.03456144 107.74059273 81.26037061 123 85 C123.66 84.67 124.32 84.34 125 84 C125 84.66 125 85.32 125 86 C125.66 86 126.32 86 127 86 C127 86.66 127 87.32 127 88 C128.14082031 87.94972656 129.28164063 87.89945313 130.45703125 87.84765625 C135.18354735 87.8486971 139.22096412 88.98857013 143.6875 90.4375 C145.14914382 90.89643302 146.61137043 91.3535147 148.07421875 91.80859375 C149.09201416 92.12546143 149.09201416 92.12546143 150.13037109 92.44873047 C153.07873154 93.31806945 155.92159533 94 159 94 C159 94.66 159 95.32 159 96 C159.86882812 95.97679687 160.73765625 95.95359375 161.6328125 95.9296875 C163.36144531 95.90261719 163.36144531 95.90261719 165.125 95.875 C166.26195312 95.85179687 167.39890625 95.82859375 168.5703125 95.8046875 C172.07669344 96.00436751 174.70301835 96.85302821 178 98 C180.41313862 98.20235222 180.41313862 98.20235222 182.6875 98.0625 C185.61966875 97.94602352 187.14285866 98.04761955 190 99 C192.81181085 99.10959892 195.59793513 99.16407148 198.41015625 99.16796875 C199.67151649 99.17296135 199.67151649 99.17296135 200.95835876 99.17805481 C202.74803115 99.18312383 204.53771302 99.18546314 206.32739258 99.18530273 C209.0003346 99.18745006 211.67283637 99.20549442 214.34570312 99.22460938 C222.94447528 99.25345594 231.44173756 99.03453823 239.99609375 98.11328125 C240.73183121 98.03554977 241.46756866 97.9578183 242.2256012 97.87773132 C246.12471165 97.40731977 249.4077396 96.558898 253 95 C255.45081847 94.63319236 257.91081688 94.32491301 260.375 94.0625 C265.76477781 93.43349745 270.14360903 92.42819549 275 90 C276.65391846 89.60828247 278.32345271 89.27942455 280 89 C285.75417199 87.8399773 291.3364153 86.3553116 296.93359375 84.5859375 C299 84 299 84 301 84 C301 83.34 301 82.68 301 82 C301.82242187 81.69707031 302.64484375 81.39414062 303.4921875 81.08203125 C309.68199926 78.75906494 315.63010353 76.28793643 321.4921875 73.234375 C324.17640336 71.91317218 326.90002593 70.83525657 329.6875 69.75 C340.09393299 65.47283612 349.46594726 59.22231596 358.625 52.75 C359.1926709 52.35014893 359.7603418 51.95029785 360.34521484 51.53833008 C363.90096421 48.96863333 366.91022729 46.10051975 370 43 C372.3125 42.1875 372.3125 42.1875 374 42 C374 41.01 374 40.02 374 39 C374.66 39 375.32 39 376 39 C376 38.34 376 37.68 376 37 C376.78375 36.938125 377.5675 36.87625 378.375 36.8125 C379.24125 36.544375 380.1075 36.27625 381 36 C381.70211894 34.34795544 382.36971413 32.68076231 383 31 C383.639375 30.855625 384.27875 30.71125 384.9375 30.5625 C385.618125 30.376875 386.29875 30.19125 387 30 C388.78379415 27.01647106 388.78379415 27.01647106 390 24 C390.99 24 391.98 24 393 24 C393 23.34 393 22.68 393 22 C394.98 21.505 394.98 21.505 397 21 C397 20.34 397 19.68 397 19 C397.99 19 398.98 19 400 19 C400.23460937 18.43796875 400.46921875 17.8759375 400.7109375 17.296875 C402.30663 14.45364109 404.28924543 12.51901873 406.625 10.25 C407.85089844 9.05117188 407.85089844 9.05117188 409.1015625 7.828125 C409.72804688 7.22484375 410.35453125 6.6215625 411 6 C411 10.29320072 408.44598988 12.12352518 405.625 15.0625 C405.0791626 15.64032227 404.5333252 16.21814453 403.97094727 16.81347656 C402.32259149 18.5508095 400.66276083 20.27646205 399 22 C398.12988281 22.91136719 397.25976562 23.82273437 396.36328125 24.76171875 C391.43250901 29.81953182 386.27142609 34.40587923 380.74609375 38.8046875 C379.00532668 40.19631067 377.28589272 41.61540953 375.59765625 43.0703125 C337.4454753 75.73774074 288.36402246 94.65197336 239 101 C238.25903076 101.103125 237.51806152 101.20625 236.75463867 101.3125 C227.66277022 102.42090238 218.45698688 102.24118218 209.3125 102.25 C207.94396881 102.25250763 207.94396881 102.25250763 206.54779053 102.25506592 C191.48354107 102.25672035 176.96286065 101.27815278 162.14624023 98.45654297 C160.69906616 98.18414795 160.69906616 98.18414795 159.22265625 97.90625 C157.91180054 97.65198242 157.91180054 97.65198242 156.57446289 97.39257812 C152.67874623 96.7985229 148.93373509 96.87102508 145 97 C145 96.34 145 95.68 145 95 C144.00709961 94.71503662 144.00709961 94.71503662 142.99414062 94.42431641 C101.82924094 82.48989521 59.94933402 63.73359903 29.53173828 32.55102539 C27.73518917 30.73185477 25.83719471 29.07539893 23.875 27.4375 C20.49185219 24.52369062 17.79516901 21.47507499 15 18 C13.33755094 16.32912637 11.67030434 14.66302104 10 13 C8.21575924 11.11677946 6.44484329 9.22084464 4.6875 7.3125 C3.80449219 6.35988281 2.92148437 5.40726563 2.01171875 4.42578125 C0 2 0 2 0 0 Z " fill="#4030AC" transform="translate(306,692)"/>
<path d="M0 0 C0.66 0 1.32 0 2 0 C3.5859375 1.828125 3.5859375 1.828125 5.375 4.25 C7.22633203 6.7456282 8.99923877 8.99925747 11.2265625 11.171875 C13 13 13 13 13 15 C13.61875 15.2475 14.2375 15.495 14.875 15.75 C17.35068687 17.20628639 17.95125002 18.37812506 19 21 C19.66 21 20.32 21 21 21 C21 21.66 21 22.32 21 23 C21.56976563 23.23847656 22.13953125 23.47695313 22.7265625 23.72265625 C25.4801136 25.26975455 27.21438669 27.13309161 29.375 29.4375 C35.42981589 35.61715745 42.10054411 40.80161336 49 46 C49.91652344 46.69996094 50.83304687 47.39992188 51.77734375 48.12109375 C58.94728091 53.47967836 66.48697584 58.20422152 74.12646484 62.85546875 C75.75445161 63.84999598 77.37231392 64.86105972 78.98828125 65.875 C92.34200796 74.03456144 107.74059273 81.26037061 123 85 C123.66 84.67 124.32 84.34 125 84 C125 84.66 125 85.32 125 86 C125.66 86 126.32 86 127 86 C127 86.66 127 87.32 127 88 C128.14082031 87.94972656 129.28164063 87.89945313 130.45703125 87.84765625 C135.18354735 87.8486971 139.22096412 88.98857013 143.6875 90.4375 C145.14914382 90.89643302 146.61137043 91.3535147 148.07421875 91.80859375 C149.09201416 92.12546143 149.09201416 92.12546143 150.13037109 92.44873047 C153.07873154 93.31806945 155.92159533 94 159 94 C159 94.66 159 95.32 159 96 C159.86882812 95.97679687 160.73765625 95.95359375 161.6328125 95.9296875 C163.36144531 95.90261719 163.36144531 95.90261719 165.125 95.875 C166.26195312 95.85179687 167.39890625 95.82859375 168.5703125 95.8046875 C172.07809273 96.00444719 174.70147928 96.85268845 178 98 C180.51363014 98.23773983 180.51363014 98.23773983 182.875 98.125 C183.65617188 98.10695313 184.43734375 98.08890625 185.2421875 98.0703125 C185.82226562 98.04710937 186.40234375 98.02390625 187 98 C185.8515625 99.5078125 185.8515625 99.5078125 184 101 C176.05973625 101.56192636 167.84309126 99.49262406 160.05639648 98.02368164 C154.92291637 97.08192598 150.20026927 96.71634895 145 97 C145 96.34 145 95.68 145 95 C144.00709961 94.71503662 144.00709961 94.71503662 142.99414062 94.42431641 C101.82924094 82.48989521 59.94933402 63.73359903 29.53173828 32.55102539 C27.73518917 30.73185477 25.83719471 29.07539893 23.875 27.4375 C20.49185219 24.52369062 17.79516901 21.47507499 15 18 C13.33755094 16.32912637 11.67030434 14.66302104 10 13 C8.21575924 11.11677946 6.44484329 9.22084464 4.6875 7.3125 C3.80449219 6.35988281 2.92148437 5.40726563 2.01171875 4.42578125 C0 2 0 2 0 0 Z " fill="#4535B9" transform="translate(306,692)"/>
<path d="M0 0 C-3.2895198 2.1930132 -5.79534201 2.81513702 -9.625 3.75 C-58.66688138 16.23787865 -100.27679175 45.49906875 -135.8125 80.625 C-136.87102173 81.66382324 -136.87102173 81.66382324 -137.95092773 82.72363281 C-142.20431623 86.9704954 -145.93989244 91.35515133 -149.46362305 96.22802734 C-151 98 -151 98 -154 99 C-152.33933318 94.85336526 -149.34070982 91.93216308 -146.3125 88.75 C-145.226899 87.59595964 -144.14226048 86.44101311 -143.05859375 85.28515625 C-142.53378418 84.72586426 -142.00897461 84.16657227 -141.46826172 83.59033203 C-138.98771846 80.90355804 -136.63780591 78.10780067 -134.3046875 75.29296875 C-133 74 -133 74 -131 74 C-130.505 72.515 -130.505 72.515 -130 71 C-128.2578125 69.28125 -128.2578125 69.28125 -126.125 67.5 C-123.14615469 64.99734679 -123.14615469 64.99734679 -120.3671875 62.28125 C-119 61 -119 61 -117 61 C-117 60.34 -117 59.68 -117 59 C-115.01688178 57.26744525 -113.0279982 55.65715367 -110.9375 54.0625 C-110.30553711 53.57523438 -109.67357422 53.08796875 -109.02246094 52.5859375 C-107.02085025 51.04942728 -105.01095511 49.52425207 -103 48 C-102.3910791 47.53319824 -101.7821582 47.06639648 -101.15478516 46.58544922 C-75.17296134 26.70783149 -46.28172949 12.13112799 -15.0625 2.5 C-14.23983643 2.24428223 -13.41717285 1.98856445 -12.56958008 1.72509766 C-8.25580967 0.44976888 -4.55037663 -0.29215901 0 0 Z " fill="#503FCE" transform="translate(669,577)"/>
<path d="M0 0 C4.61810543 0.65333662 8.57758375 2.45097662 12.75 4.4375 C13.4937085 4.79094482 14.23741699 5.14438965 15.00366211 5.50854492 C37.46445248 16.39039023 58.3999611 31.01805187 76.734375 47.92578125 C79.61855684 50.56629945 82.60173547 53.08208321 85.6015625 55.58984375 C87 57 87 57 87 59 C88.485 59.495 88.485 59.495 90 60 C91.6875 62.0625 91.6875 62.0625 93 64 C92.67 64.66 92.34 65.32 92 66 C91.49774902 65.48203857 90.99549805 64.96407715 90.47802734 64.43041992 C81.01753213 54.71438136 71.65482849 45.24045043 60.68164062 37.23730469 C58.95808492 35.96916005 57.26741609 34.66492414 55.578125 33.3515625 C40.74208689 21.952943 24.46619676 12.76237465 7.43701172 5.07006836 C6.60572754 4.69245361 5.77444336 4.31483887 4.91796875 3.92578125 C4.18344482 3.60005127 3.4489209 3.27432129 2.69213867 2.9387207 C1 2 1 2 0 0 Z " fill="#4F3BCE" transform="translate(416,584)"/>
<path d="M0 0 C1.15900798 3.47702393 0.8674775 3.98391593 -0.51953125 7.21875 C-0.87740723 8.05937988 -1.2352832 8.90000977 -1.60400391 9.76611328 C-2.00280762 10.6682959 -2.40161133 11.57047852 -2.8125 12.5 C-3.21903809 13.43183105 -3.62557617 14.36366211 -4.04443359 15.32373047 C-9.9892998 28.73540307 -16.68546655 41.8911358 -25 54 C-25.43570313 54.63647461 -25.87140625 55.27294922 -26.3203125 55.92871094 C-42.94107551 80.11547635 -42.94107551 80.11547635 -50 85 C-48.49856521 81.61790205 -46.52752165 79.11544192 -44.125 76.3125 C-28.63191789 57.6012732 -28.63191789 57.6012732 -18 36 C-17.34 36 -16.68 36 -16 36 C-15.72148193 35.28827637 -15.44296387 34.57655273 -15.15600586 33.84326172 C-14.01049099 31.02580317 -12.77802575 28.26931717 -11.50390625 25.5078125 C-11.02759766 24.47269531 -10.55128906 23.43757812 -10.06054688 22.37109375 C-9.56619141 21.29988281 -9.07183594 20.22867188 -8.5625 19.125 C-4.17163009 9.61108437 -4.17163009 9.61108437 0 0 Z " fill="#4130AA" transform="translate(769,612)"/>
<path d="M0 0 C2 1 2 1 3.015625 3.6484375 C3.42296875 4.87820313 3.8303125 6.10796875 4.25 7.375 C11.20307534 27.02970188 22.19178082 45.9352856 34.4375 62.7265625 C35.03618896 63.54825928 35.63487793 64.36995605 36.25170898 65.21655273 C37.4375272 66.83468219 38.63206031 68.4464695 39.83618164 70.05102539 C40.37621826 70.7805542 40.91625488 71.51008301 41.47265625 72.26171875 C41.96000244 72.91100342 42.44734863 73.56028809 42.94946289 74.22924805 C44 76 44 76 44 79 C35.10540849 69.12158234 27.97159972 58.29093563 21 47 C20.57831543 46.31953613 20.15663086 45.63907227 19.72216797 44.93798828 C14.41253014 36.25495907 10.13418867 27.16923891 6 17.875 C5.51837402 16.79516846 5.03674805 15.71533691 4.54052734 14.6027832 C4.09402832 13.57628662 3.6475293 12.54979004 3.1875 11.4921875 C2.78917969 10.57808105 2.39085937 9.66397461 1.98046875 8.72216797 C0.93555069 5.8210633 0.41702802 3.04979767 0 0 Z " fill="#4B39C1" transform="translate(261,613)"/>
<path d="M0 0 C5.08665901 1.53669622 8.42614001 4.66357342 12.3125 8.125 C13.30999268 9.00079712 13.30999268 9.00079712 14.32763672 9.89428711 C18.51819889 13.60061337 22.55200728 17.4181785 26.44140625 21.44140625 C28.0934881 23.15705859 28.0934881 23.15705859 30.5625 25 C33.57716674 27.47357271 35.95157436 30.30797911 38.44921875 33.29296875 C39.90679775 35.10394589 39.90679775 35.10394589 42 36 C42 36.66 42 37.32 42 38 C42.53625 38.268125 43.0725 38.53625 43.625 38.8125 C46 40 46 40 48.8125 41.6875 C53.73389322 43.71395603 58.02374306 42.39335194 63 41 C61.29870149 43.36702401 59.91138367 44.79766924 57.01171875 45.44140625 C50.82719054 45.77252952 46.86443054 43.78493905 42 40 C37.7533083 36.07456327 33.71772479 31.95813439 29.6875 27.8125 C28.06257765 26.15240512 26.4354624 24.4945422 24.80561829 22.83927917 C23.79843323 21.81523155 22.79435942 20.78811184 21.79386902 19.75752258 C19.61585382 17.53273789 17.60532043 15.73688029 15 14 C15 13.34 15 12.68 15 12 C14.45859375 11.7525 13.9171875 11.505 13.359375 11.25 C10.4717151 9.72011396 7.90223982 7.90849003 5.25 6 C4.26515625 5.29875 3.2803125 4.5975 2.265625 3.875 C1.51796875 3.25625 0.7703125 2.6375 0 2 C0 1.34 0 0.68 0 0 Z " fill="#4D3ACE" transform="translate(451,636)"/>
<path d="M0 0 C0.66 0.33 1.32 0.66 2 1 C0.50067938 2.35491884 -0.99950054 3.70888678 -2.5 5.0625 C-3.75296875 6.19365234 -3.75296875 6.19365234 -5.03125 7.34765625 C-6.60840506 8.75671979 -8.18890336 10.16238023 -9.79272461 11.54101562 C-15.27848044 16.26366106 -20.44304265 21.25962841 -25.5625 26.375 C-26.37396484 27.17421875 -27.18542969 27.9734375 -28.02148438 28.796875 C-32.60612491 33.37041471 -36.7250509 38.0103902 -40.50756836 43.27197266 C-42 45 -42 45 -45 46 C-43.33933318 41.85336526 -40.34070982 38.93216308 -37.3125 35.75 C-36.226899 34.59595964 -35.14226048 33.44101311 -34.05859375 32.28515625 C-33.53378418 31.72586426 -33.00897461 31.16657227 -32.46826172 30.59033203 C-29.98771846 27.90355804 -27.63780591 25.10780067 -25.3046875 22.29296875 C-24 21 -24 21 -22 21 C-21.67 20.01 -21.34 19.02 -21 18 C-19.2578125 16.28125 -19.2578125 16.28125 -17.125 14.5 C-14.14615469 11.99734679 -14.14615469 11.99734679 -11.3671875 9.28125 C-10 8 -10 8 -8 8 C-8 7.34 -8 6.68 -8 6 C-6.25 4.4921875 -6.25 4.4921875 -4 2.875 C-3.2575 2.33617187 -2.515 1.79734375 -1.75 1.2421875 C-0.88375 0.62730469 -0.88375 0.62730469 0 0 Z " fill="#4937C4" transform="translate(560,630)"/>
<path d="M0 0 C0.66 0 1.32 0 2 0 C3.5859375 1.828125 3.5859375 1.828125 5.375 4.25 C7.22633203 6.7456282 8.99923877 8.99925747 11.2265625 11.171875 C13 13 13 13 13 15 C13.61875 15.2475 14.2375 15.495 14.875 15.75 C17.35068687 17.20628639 17.95125002 18.37812506 19 21 C19.66 21 20.32 21 21 21 C21 21.66 21 22.32 21 23 C21.56203125 23.23203125 22.1240625 23.4640625 22.703125 23.703125 C25.58070409 25.32788054 27.47330821 27.35729844 29.75 29.75 C33.88932876 33.98759176 38.12199362 37.64807383 43 41 C42.34 41.66 41.68 42.32 41 43 C40.24976563 42.31035156 39.49953125 41.62070312 38.7265625 40.91015625 C37.69274115 39.96090176 36.65888437 39.01168586 35.625 38.0625 C35.08423828 37.56540527 34.54347656 37.06831055 33.98632812 36.55615234 C29.75607302 32.67428577 25.47364306 28.85522708 21.15625 25.0703125 C18.8577069 22.863378 16.98188678 20.49260376 15 18 C13.34674111 16.32003256 11.67932114 14.65391537 10 13 C8.21575924 11.11677946 6.44484329 9.22084464 4.6875 7.3125 C3.80449219 6.35988281 2.92148437 5.40726563 2.01171875 4.42578125 C0 2 0 2 0 0 Z " fill="#4A39C0" transform="translate(306,692)"/>
<path d="M0 0 C3.32641156 1.45437277 5.52290451 3.29900633 8.125 5.8125 C12.87158757 10.17060198 17.89732958 13.98588451 23.125 17.75 C23.87668457 18.29245361 24.62836914 18.83490723 25.40283203 19.39379883 C30.1580176 22.78552578 35.00898681 25.96641303 40 29 C39.40168778 32.60502045 39.12580062 32.90757505 35.9375 35.25 C34.968125 35.8275 33.99875 36.405 33 37 C34.20381448 34.50638429 35.45428722 32.31856917 37 30 C36.21238281 29.46632813 35.42476562 28.93265625 34.61328125 28.3828125 C26.5243853 22.84981622 18.68973835 17.07420735 11 11 C10.45939941 10.57589844 9.91879883 10.15179687 9.36181641 9.71484375 C7.79765877 8.48421627 6.24238862 7.24231818 4.6875 6 C3.78386719 5.278125 2.88023437 4.55625 1.94921875 3.8125 C1.30597656 3.214375 0.66273438 2.61625 0 2 C0 1.34 0 0.68 0 0 Z " fill="#4E3BCB" transform="translate(485,606)"/>
<path d="M0 0 C0.66 0.66 1.32 1.32 2 2 C-0.12024884 5.97633553 -2.40565091 8.46700914 -5.9375 11.25 C-7.21947266 12.27867187 -7.21947266 12.27867187 -8.52734375 13.328125 C-10.83152624 14.88608725 -12.31354422 15.51260845 -15 16 C-15.66 16.33 -16.32 16.66 -17 17 C-15.63016497 13.83884224 -15.0109362 13.0072908 -12 11 C-11.01 11 -10.02 11 -9 11 C-9 10.01 -9 9.02 -9 8 C-8.34 8 -7.68 8 -7 8 C-7 7.34 -7 6.68 -7 6 C-6.21625 5.938125 -5.4325 5.87625 -4.625 5.8125 C-3.75875 5.544375 -2.8925 5.27625 -2 5 C-0.62533375 2.52363988 -0.62533375 2.52363988 0 0 Z " fill="#4B3AC4" transform="translate(689,723)"/>
<path d="M0 0 C0 3 0 3 -1.12988281 4.50219727 C-1.64905273 5.01838623 -2.16822266 5.5345752 -2.703125 6.06640625 C-3.27160156 6.63423828 -3.84007812 7.20207031 -4.42578125 7.78710938 C-5.02777344 8.37298828 -5.62976563 8.95886719 -6.25 9.5625 C-7.12978516 10.44711914 -7.12978516 10.44711914 -8.02734375 11.34960938 C-10.88989619 14.17678195 -13.30346026 16.32089551 -17 18 C-16.84910058 13.02031905 -14.11880689 10.67812858 -10.7890625 7.35546875 C-9 6 -9 6 -6 6 C-4.33243964 4.69563273 -4.33243964 4.69563273 -2.8125 3 C-2.28269531 2.443125 -1.75289063 1.88625 -1.20703125 1.3125 C-0.80871094 0.879375 -0.41039062 0.44625 0 0 Z " fill="#775FF3" transform="translate(341,296)"/>
<path d="M0 0 C3.95677402 1.67401978 6.84464213 4.13149285 10 7 C10 7.66 10 8.32 10 9 C10.53625 9.268125 11.0725 9.53625 11.625 9.8125 C14 11 14 11 16.8125 12.6875 C21.73389322 14.71395603 26.02374306 13.39335194 31 12 C29.29870149 14.36702401 27.91138367 15.79766924 25.01171875 16.44140625 C18.74174076 16.77710455 14.7579529 14.96350571 10 11 C6.53434537 7.78792985 3.16901686 4.50669898 0 1 C0 0.67 0 0.34 0 0 Z " fill="#4736C5" transform="translate(483,665)"/>
<path d="M0 0 C0.33 0 0.66 0 1 0 C2.24309384 6.58839734 1.94229912 12.53702807 0 19 C-0.66 19.33 -1.32 19.66 -2 20 C-2.40729228 22.32156597 -2.74438677 24.6568787 -3 27 C-3.33 27 -3.66 27 -4 27 C-4.23341328 20.69784145 -3.39477733 15.13513544 -2 9 C-1.80921875 8.12988281 -1.6184375 7.25976562 -1.421875 6.36328125 C-0.95533903 4.2405426 -0.47871537 2.12002519 0 0 Z " fill="#6D57F0" transform="translate(415,396)"/>
<path d="M0 0 C0.33 0.66 0.66 1.32 1 2 C-4.8722608 10.50803547 -10.84998297 18.50457152 -18 26 C-18 21.7886408 -15.60986286 19.92456448 -12.9375 16.9375 C-8.22422498 11.53730075 -3.95887143 5.98559741 0 0 Z " fill="#3B2BA0" transform="translate(738,671)"/>
<path d="M0 0 C0.66 0.33 1.32 0.66 2 1 C-1.14130576 4.29089174 -4.18793868 6.20201976 -8.5 7.625 C-9.2734375 7.88539063 -10.046875 8.14578125 -10.84375 8.4140625 C-13 9 -13 9 -16 9 C-16 8.34 -16 7.68 -16 7 C-15.09636719 6.66226563 -14.19273437 6.32453125 -13.26171875 5.9765625 C-12.08222656 5.53054688 -10.90273438 5.08453125 -9.6875 4.625 C-7.92986328 3.96371094 -7.92986328 3.96371094 -6.13671875 3.2890625 C-2.91446407 2.08510352 -2.91446407 2.08510352 0 0 Z " fill="#4537BC" transform="translate(623,767)"/>
<path d="M0 0 C-3.7219563 4.20742886 -8.32049552 6.98374481 -13 10 C-13.99 10.66 -14.98 11.32 -16 12 C-16 9 -16 9 -14.8125 7.5625 C-5.68362157 -0.30722279 -5.68362157 -0.30722279 0 0 Z " fill="#745EF4" transform="translate(382,267)"/>
<path d="M0 0 C0 3.43344882 -0.33204625 3.73756719 -2.5546875 6.13671875 C-3.08707031 6.71357422 -3.61945312 7.29042969 -4.16796875 7.88476562 C-4.73128906 8.47966797 -5.29460938 9.07457031 -5.875 9.6875 C-6.43058594 10.29400391 -6.98617187 10.90050781 -7.55859375 11.52539062 C-8.99275882 13.06150237 -10.49222135 14.53607641 -12 16 C-12.66 16 -13.32 16 -14 16 C-14 15.01 -14 14.02 -14 13 C-13.01 13 -12.02 13 -11 13 C-10.76539063 12.43796875 -10.53078125 11.8759375 -10.2890625 11.296875 C-8.69337 8.45364109 -6.71075457 6.51901873 -4.375 4.25 C-3.55773437 3.45078125 -2.74046875 2.6515625 -1.8984375 1.828125 C-0.95871094 0.92320312 -0.95871094 0.92320312 0 0 Z " fill="#3C2EA6" transform="translate(717,698)"/>
<path d="M0 0 C0.66 0 1.32 0 2 0 C1.33333333 1.33333333 0.66666667 2.66666667 0 4 C-0.33 4.70125 -0.66 5.4025 -1 6.125 C-2.68196694 9.27868801 -5.3055789 11.03317144 -8.125 13.125 C-8.84945312 13.66382813 -9.57390625 14.20265625 -10.3203125 14.7578125 C-10.87460937 15.16773438 -11.42890625 15.57765625 -12 16 C-10.43988817 12.5222507 -8.36827674 9.72775973 -6 6.75 C-5.29875 5.85796875 -4.5975 4.9659375 -3.875 4.046875 C-3.25625 3.37140625 -2.6375 2.6959375 -2 2 C-1.34 2 -0.68 2 0 2 C0 1.34 0 0.68 0 0 Z " fill="#4D3DD0" transform="translate(722,689)"/>
<path d="M0 0 C3.0390625 -0.29296875 3.0390625 -0.29296875 6.625 -0.1875 C7.81351563 -0.16042969 9.00203125 -0.13335938 10.2265625 -0.10546875 C11.14179687 -0.07066406 12.05703125 -0.03585937 13 0 C13 0.99 13 1.98 13 3 C8.05 3 3.1 3 -2 3 C-1.34 2.01 -0.68 1.02 0 0 Z " fill="#4839B8" transform="translate(522,791)"/>
<path d="M0 0 C0.66 0.33 1.32 0.66 2 1 C-2.47307108 5.04165813 -6.88276824 8.80173015 -12 12 C-12.66 11.67 -13.32 11.34 -14 11 C-13.25 9.0625 -13.25 9.0625 -12 7 C-11.401875 6.855625 -10.80375 6.71125 -10.1875 6.5625 C-7.49694525 5.87064306 -5.92869691 4.64414591 -3.75 2.9375 C-3.04359375 2.38964844 -2.3371875 1.84179688 -1.609375 1.27734375 C-0.81273437 0.64505859 -0.81273437 0.64505859 0 0 Z " fill="#7D65FB" transform="translate(362,279)"/>
<path d="M0 0 C0.66 0.33 1.32 0.66 2 1 C1.43410156 1.39832031 0.86820313 1.79664063 0.28515625 2.20703125 C-0.44832031 2.73683594 -1.18179687 3.26664062 -1.9375 3.8125 C-2.66839844 4.33457031 -3.39929688 4.85664063 -4.15234375 5.39453125 C-6.26883226 6.95867127 -6.26883226 6.95867127 -7 10 C-8.98 10.33 -10.96 10.66 -13 11 C-10.19195732 8.03595495 -7.81684226 5.55500981 -4 4 C-4 3.34 -4 2.68 -4 2 C-2.125 0.9375 -2.125 0.9375 0 0 Z " fill="#7C63FA" transform="translate(512,260)"/>
<path d="M0 0 C0.66 0.33 1.32 0.66 2 1 C0.75803878 2.15454162 -0.49392845 3.29832562 -1.75 4.4375 C-2.44609375 5.07558594 -3.1421875 5.71367188 -3.859375 6.37109375 C-6.01837514 8.01398255 -7.37557008 8.52032478 -10 9 C-10.99 9.495 -10.99 9.495 -12 10 C-10.61470538 6.5511936 -9.38628495 5.35649967 -6 3.875 C-3.43279162 2.7329698 -2.01800698 2.01800698 0 0 Z " fill="#4332B3" transform="translate(684,730)"/>
<path d="M0 0 C0.66 0 1.32 0 2 0 C0.61811547 3.21043882 -0.92421903 5.04936365 -3.625 7.25 C-4.57246094 8.03117188 -4.57246094 8.03117188 -5.5390625 8.828125 C-6.02117188 9.21484375 -6.50328125 9.6015625 -7 10 C-7 7 -7 7 -5.125 4.8125 C-3 3 -3 3 -1 3 C-0.67 2.01 -0.34 1.02 0 0 Z " fill="#513FD0" transform="translate(539,648)"/>
<path d="M0 0 C-3.96 1.32 -7.92 2.64 -12 4 C-12.33 3.01 -12.66 2.02 -13 1 C-13.66 0.67 -14.32 0.34 -15 0 C-13.25093341 -0.19601608 -11.50068154 -0.38147403 -9.75 -0.5625 C-8.77546875 -0.66691406 -7.8009375 -0.77132812 -6.796875 -0.87890625 C-4 -1 -4 -1 0 0 Z " fill="#7C65FA" transform="translate(462,235)"/>
<path d="M0 0 C0.66 0.33 1.32 0.66 2 1 C-1.3 4.3 -4.6 7.6 -8 11 C-8.33 10.01 -8.66 9.02 -9 8 C-6.03 5.36 -3.06 2.72 0 0 Z " fill="#604BDF" transform="translate(342,293)"/>
<path d="M0 0 C0.66 0.99 1.32 1.98 2 3 C-1.23521742 5.48862878 -4.59260295 7.75421558 -8 10 C-6.34908222 5.70761377 -3.26245434 3.1206085 0 0 Z " fill="#755EF4" transform="translate(475,292)"/>
<path d="M0 0 C-2.60542016 1.73694677 -4.58342775 2.69100448 -7.5 3.6875 C-8.2734375 3.95949219 -9.046875 4.23148438 -9.84375 4.51171875 C-12 5 -12 5 -15 4 C-13.06767179 3.13419713 -11.12892806 2.28270059 -9.1875 1.4375 C-8.10855469 0.96183594 -7.02960938 0.48617187 -5.91796875 -0.00390625 C-3 -1 -3 -1 0 0 Z " fill="#8066FE" transform="translate(432,244)"/>
<path d="M0 0 C0.66 0.33 1.32 0.66 2 1 C0.71632558 2.83893824 -0.57716761 4.67102625 -1.875 6.5 C-2.95394531 8.03140625 -2.95394531 8.03140625 -4.0546875 9.59375 C-4.69664062 10.3878125 -5.33859375 11.181875 -6 12 C-6.66 12 -7.32 12 -8 12 C-6.59023295 8.96147295 -4.91129772 6.4060405 -2.875 3.75 C-2.06675781 2.69039062 -2.06675781 2.69039062 -1.2421875 1.609375 C-0.83226562 1.07828125 -0.42234375 0.5471875 0 0 Z " fill="#4E3ED0" transform="translate(737,670)"/>
<path d="M0 0 C0.66 0.66 1.32 1.32 2 2 C0.21475351 3.19713017 -1.5784028 4.38247279 -3.375 5.5625 C-4.87160156 6.55443359 -4.87160156 6.55443359 -6.3984375 7.56640625 C-7.25695312 8.03949219 -8.11546875 8.51257813 -9 9 C-9.66 8.67 -10.32 8.34 -11 8 C-8.21727004 4.72620005 -4.70883468 3.06046371 -1 1 C-0.67 0.67 -0.34 0.34 0 0 Z " fill="#7E65FD" transform="translate(537,243)"/>
<path d="M0 0 C2.97 0.495 2.97 0.495 6 1 C6.33 1.99 6.66 2.98 7 4 C4.03 4 1.06 4 -2 4 C-2.33 3.34 -2.66 2.68 -3 2 C-2.01 2 -1.02 2 0 2 C0 1.34 0 0.68 0 0 Z " fill="#735DEF" transform="translate(532,225)"/>
<path d="M0 0 C-1.49097658 3.7952131 -3.75700849 5.61042731 -7 8 C-7.66 7.67 -8.32 7.34 -9 7 C-7.88121617 5.82737096 -6.75476949 4.66204862 -5.625 3.5 C-4.68527344 2.52546875 -4.68527344 2.52546875 -3.7265625 1.53125 C-2 0 -2 0 0 0 Z " fill="#392CA2" transform="translate(698,719)"/>
<path d="M0 0 C1 2 1 2 0.29296875 4.12890625 C-0.07183594 4.93199219 -0.43664062 5.73507812 -0.8125 6.5625 C-1.16957031 7.36816406 -1.52664063 8.17382812 -1.89453125 9.00390625 C-3 11 -3 11 -5 12 C-4.42365861 7.24518354 -2.44931479 4.02951788 0 0 Z " fill="#7D63FE" transform="translate(275,383)"/>
<path d="M0 0 C0.99 0.495 0.99 0.495 2 1 C1.01 1.495 1.01 1.495 0 2 C0 1.34 0 0.68 0 0 Z " fill="#5C4DBC" transform="translate(449,787)"/>
<path d="M0 0 C0.99 0.495 0.99 0.495 2 1 C1.01 1.495 1.01 1.495 0 2 C0 1.34 0 0.68 0 0 Z " fill="#594BB5" transform="translate(582,786)"/>
<path d="M0 0 C0.33 0.66 0.66 1.32 1 2 C0.34 1.67 -0.32 1.34 -1 1 C-0.67 0.67 -0.34 0.34 0 0 Z " fill="#7263E3" transform="translate(569,620)"/>
<path d="M0 0 C3 1 3 1 3 1 Z " fill="#7660ED" transform="translate(403,582)"/>
<path d="M0 0 C0.99 0.495 0.99 0.495 2 1 C1.01 1.495 1.01 1.495 0 2 C0 1.34 0 0.68 0 0 Z " fill="#7662DE" transform="translate(647,579)"/>
<path d="M0 0 C3 1 3 1 3 1 Z " fill="#765FEF" transform="translate(369,573)"/>
<path d="M0 0 C2 1 2 1 2 1 Z " fill="#564AB8" transform="translate(560,791)"/>
<path d="M0 0 C2 1 2 1 2 1 Z " fill="#5C4DBF" transform="translate(457,789)"/>
<path d="M0 0 C2 1 2 1 2 1 Z " fill="#5A4DB6" transform="translate(578,787)"/>
<path d="M0 0 C2 1 2 1 2 1 Z " fill="#6151C2" transform="translate(425,780)"/>
<path d="M0 0 C2 1 2 1 2 1 Z " fill="#7364DC" transform="translate(276,654)"/>
<path d="" fill="#7560E5" transform="translate(0,0)"/>
<path d="" fill="#7865E2" transform="translate(0,0)"/>
<path d="" fill="#7864E2" transform="translate(0,0)"/>
<path d="M0 0 C2 1 2 1 2 1 Z " fill="#735CEB" transform="translate(451,605)"/>
<path d="M0 0 C2 1 2 1 2 1 Z " fill="#725DEB" transform="translate(386,600)"/>
<path d="M0 0 C2 1 2 1 2 1 Z " fill="#7461E8" transform="translate(460,577)"/>
<path d="" fill="#7761F2" transform="translate(0,0)"/>
<path d="M0 0 C2 1 2 1 2 1 Z " fill="#7361DB" transform="translate(679,571)"/>
<path d="M0 0 C2 1 2 1 2 1 Z " fill="#6F5CD6" transform="translate(729,570)"/>
<path d="" fill="#7E6CE8" transform="translate(0,0)"/>
<path d="" fill="#7F6DE9" transform="translate(0,0)"/>
<path d="" fill="#806FE8" transform="translate(0,0)"/>
<path d="" fill="#8371EB" transform="translate(0,0)"/>
<path d="" fill="#806FF0" transform="translate(0,0)"/>
<path d="" fill="#846EF1" transform="translate(0,0)"/>
<path d="" fill="#8570EE" transform="translate(0,0)"/>
<path d="M0 0 C2 1 2 1 2 1 Z " fill="#8C78F1" transform="translate(390,257)"/>
<path d="M0 0 C2 1 2 1 2 1 Z " fill="#8977EC" transform="translate(392,256)"/>
<path d="" fill="#8977F1" transform="translate(0,0)"/>
<path d="M0 0 C2 1 2 1 2 1 Z " fill="#897AEF" transform="translate(464,229)"/>
<path d="" fill="#897AED" transform="translate(0,0)"/>
<path d="M0 0 C2 1 2 1 2 1 Z " fill="#8576E9" transform="translate(497,224)"/>
<path d="" fill="#5A4CB4" transform="translate(0,0)"/>
<path d="" fill="#5B4CB5" transform="translate(0,0)"/>
<path d="" fill="#5D4CB7" transform="translate(0,0)"/>
<path d="" fill="#5A4BB3" transform="translate(0,0)"/>
<path d="" fill="#5E4DB9" transform="translate(0,0)"/>
<path d="" fill="#5A4BB7" transform="translate(0,0)"/>
<path d="" fill="#584CB7" transform="translate(0,0)"/>
<path d="" fill="#604EBA" transform="translate(0,0)"/>
<path d="" fill="#5D50C5" transform="translate(0,0)"/>
<path d="" fill="#5C4BB8" transform="translate(0,0)"/>
<path d="" fill="#6255BE" transform="translate(0,0)"/>
<path d="" fill="#5A4DB4" transform="translate(0,0)"/>
<path d="" fill="#594BB9" transform="translate(0,0)"/>
<path d="" fill="#6254C7" transform="translate(0,0)"/>
<path d="" fill="#6351C1" transform="translate(0,0)"/>
<path d="" fill="#594BB7" transform="translate(0,0)"/>
<path d="" fill="#6355C3" transform="translate(0,0)"/>
<path d="" fill="#6452C5" transform="translate(0,0)"/>
<path d="" fill="#6454C8" transform="translate(0,0)"/>
<path d="" fill="#6555C8" transform="translate(0,0)"/>
<path d="" fill="#6859CA" transform="translate(0,0)"/>
<path d="" fill="#6659CA" transform="translate(0,0)"/>
<path d="" fill="#655ACC" transform="translate(0,0)"/>
<path d="" fill="#6655C9" transform="translate(0,0)"/>
<path d="" fill="#5D4DB9" transform="translate(0,0)"/>
<path d="" fill="#584BB7" transform="translate(0,0)"/>
<path d="" fill="#6C5CD1" transform="translate(0,0)"/>
<path d="" fill="#6E5BD5" transform="translate(0,0)"/>
<path d="" fill="#6B5AD3" transform="translate(0,0)"/>
<path d="" fill="#6E5DCF" transform="translate(0,0)"/>
<path d="" fill="#6D5CD0" transform="translate(0,0)"/>
<path d="" fill="#6E5CD4" transform="translate(0,0)"/>
<path d="" fill="#6B61D7" transform="translate(0,0)"/>
<path d="" fill="#6151C0" transform="translate(0,0)"/>
<path d="" fill="#6854DC" transform="translate(0,0)"/>
<path d="" fill="#6F5DD8" transform="translate(0,0)"/>
<path d="" fill="#7464D7" transform="translate(0,0)"/>
<path d="" fill="#7362D7" transform="translate(0,0)"/>
<path d="" fill="#6756D9" transform="translate(0,0)"/>
<path d="" fill="#7260D9" transform="translate(0,0)"/>
<path d="" fill="#6A58DC" transform="translate(0,0)"/>
<path d="" fill="#6B55E2" transform="translate(0,0)"/>
<path d="" fill="#7264DA" transform="translate(0,0)"/>
<path d="" fill="#7063DC" transform="translate(0,0)"/>
<path d="" fill="#6F5BE5" transform="translate(0,0)"/>
<path d="" fill="#7562DB" transform="translate(0,0)"/>
<path d="" fill="#6B58E2" transform="translate(0,0)"/>
<path d="" fill="#6C58DA" transform="translate(0,0)"/>
<path d="" fill="#7261D9" transform="translate(0,0)"/>
<path d="" fill="#6C59DB" transform="translate(0,0)"/>
<path d="" fill="#6353C1" transform="translate(0,0)"/>
<path d="" fill="#6F58E8" transform="translate(0,0)"/>
<path d="" fill="#715DEB" transform="translate(0,0)"/>
<path d="" fill="#7564DF" transform="translate(0,0)"/>
<path d="" fill="#7764E0" transform="translate(0,0)"/>
<path d="" fill="#6F5DE1" transform="translate(0,0)"/>
<path d="" fill="#705CE9" transform="translate(0,0)"/>
<path d="" fill="#735AE9" transform="translate(0,0)"/>
<path d="" fill="#725DE8" transform="translate(0,0)"/>
<path d="" fill="#705BE6" transform="translate(0,0)"/>
<path d="" fill="#6C5AD9" transform="translate(0,0)"/>
<path d="" fill="#735CE9" transform="translate(0,0)"/>
<path d="" fill="#725FE3" transform="translate(0,0)"/>
<path d="" fill="#705CE8" transform="translate(0,0)"/>
<path d="" fill="#6F58EA" transform="translate(0,0)"/>
<path d="" fill="#7159EC" transform="translate(0,0)"/>
<path d="" fill="#725CEA" transform="translate(0,0)"/>
<path d="" fill="#7262E6" transform="translate(0,0)"/>
<path d="" fill="#7461E4" transform="translate(0,0)"/>
<path d="" fill="#725CEA" transform="translate(0,0)"/>
<path d="" fill="#7867DF" transform="translate(0,0)"/>
<path d="" fill="#6F5AE0" transform="translate(0,0)"/>
<path d="" fill="#6D5DE7" transform="translate(0,0)"/>
<path d="" fill="#735DEA" transform="translate(0,0)"/>
<path d="" fill="#705BEA" transform="translate(0,0)"/>
<path d="" fill="#7560E0" transform="translate(0,0)"/>
<path d="" fill="#7362E5" transform="translate(0,0)"/>
<path d="" fill="#7561E2" transform="translate(0,0)"/>
<path d="" fill="#705BE9" transform="translate(0,0)"/>
<path d="" fill="#7662E3" transform="translate(0,0)"/>
<path d="" fill="#7158EA" transform="translate(0,0)"/>
<path d="" fill="#7964E6" transform="translate(0,0)"/>
<path d="" fill="#745AE9" transform="translate(0,0)"/>
<path d="" fill="#7363DD" transform="translate(0,0)"/>
<path d="" fill="#7362E5" transform="translate(0,0)"/>
<path d="" fill="#7360EC" transform="translate(0,0)"/>
<path d="" fill="#745BEB" transform="translate(0,0)"/>
<path d="" fill="#7461E4" transform="translate(0,0)"/>
<path d="" fill="#745DEC" transform="translate(0,0)"/>
<path d="" fill="#745EE9" transform="translate(0,0)"/>
<path d="" fill="#755CEA" transform="translate(0,0)"/>
<path d="" fill="#7861E5" transform="translate(0,0)"/>
<path d="" fill="#7B69E1" transform="translate(0,0)"/>
<path d="" fill="#7963E1" transform="translate(0,0)"/>
<path d="" fill="#765FED" transform="translate(0,0)"/>
<path d="" fill="#795DF0" transform="translate(0,0)"/>
<path d="" fill="#7A64E6" transform="translate(0,0)"/>
<path d="" fill="#7965E8" transform="translate(0,0)"/>
<path d="" fill="#7860F1" transform="translate(0,0)"/>
<path d="" fill="#7765E1" transform="translate(0,0)"/>
<path d="" fill="#7865E1" transform="translate(0,0)"/>
<path d="" fill="#7561EE" transform="translate(0,0)"/>
<path d="" fill="#7363DD" transform="translate(0,0)"/>
<path d="" fill="#7564DA" transform="translate(0,0)"/>
<path d="" fill="#7665DE" transform="translate(0,0)"/>
<path d="" fill="#7861F4" transform="translate(0,0)"/>
<path d="" fill="#745FF1" transform="translate(0,0)"/>
<path d="" fill="#6E5DD0" transform="translate(0,0)"/>
<path d="" fill="#745FEE" transform="translate(0,0)"/>
<path d="" fill="#6D60D2" transform="translate(0,0)"/>
<path d="" fill="#7962F3" transform="translate(0,0)"/>
<path d="" fill="#775EF2" transform="translate(0,0)"/>
<path d="" fill="#6F5CD7" transform="translate(0,0)"/>
<path d="" fill="#6E60DC" transform="translate(0,0)"/>
<path d="" fill="#725FD9" transform="translate(0,0)"/>
<path d="" fill="#6E5FDA" transform="translate(0,0)"/>
<path d="" fill="#7060DB" transform="translate(0,0)"/>
<path d="" fill="#705FDD" transform="translate(0,0)"/>
<path d="" fill="#7E6FE0" transform="translate(0,0)"/>
<path d="" fill="#7C6BE4" transform="translate(0,0)"/>
<path d="" fill="#7E6CE6" transform="translate(0,0)"/>
<path d="" fill="#7865EA" transform="translate(0,0)"/>
<path d="" fill="#7966EB" transform="translate(0,0)"/>
<path d="" fill="#7E6BE8" transform="translate(0,0)"/>
<path d="" fill="#7D6AE6" transform="translate(0,0)"/>
<path d="" fill="#7F6CE7" transform="translate(0,0)"/>
<path d="" fill="#7C63ED" transform="translate(0,0)"/>
<path d="" fill="#7A6AED" transform="translate(0,0)"/>
<path d="" fill="#7E6DE4" transform="translate(0,0)"/>
<path d="" fill="#7F6FE6" transform="translate(0,0)"/>
<path d="" fill="#7A67ED" transform="translate(0,0)"/>
<path d="" fill="#8272EC" transform="translate(0,0)"/>
<path d="" fill="#8373E9" transform="translate(0,0)"/>
<path d="" fill="#8472E9" transform="translate(0,0)"/>
<path d="" fill="#8273E5" transform="translate(0,0)"/>
<path d="" fill="#8677E8" transform="translate(0,0)"/>
<path d="" fill="#826FEF" transform="translate(0,0)"/>
<path d="" fill="#8472E7" transform="translate(0,0)"/>
<path d="" fill="#8473EA" transform="translate(0,0)"/>
<path d="" fill="#8574E9" transform="translate(0,0)"/>
<path d="" fill="#8474E7" transform="translate(0,0)"/>
<path d="" fill="#836EEE" transform="translate(0,0)"/>
<path d="" fill="#8374E8" transform="translate(0,0)"/>
<path d="" fill="#836EF0" transform="translate(0,0)"/>
<path d="" fill="#8776EA" transform="translate(0,0)"/>
<path d="" fill="#8574EB" transform="translate(0,0)"/>
<path d="" fill="#8574EA" transform="translate(0,0)"/>
<path d="" fill="#826EEF" transform="translate(0,0)"/>
<path d="" fill="#8676EB" transform="translate(0,0)"/>
<path d="" fill="#8475EC" transform="translate(0,0)"/>
<path d="" fill="#8A77EE" transform="translate(0,0)"/>
<path d="" fill="#846EEF" transform="translate(0,0)"/>
<path d="" fill="#8977EB" transform="translate(0,0)"/>
<path d="" fill="#8573EA" transform="translate(0,0)"/>
<path d="" fill="#846FF1" transform="translate(0,0)"/>
<path d="" fill="#8875ED" transform="translate(0,0)"/>
<path d="" fill="#8A76EF" transform="translate(0,0)"/>
<path d="" fill="#8874EC" transform="translate(0,0)"/>
<path d="" fill="#8877EF" transform="translate(0,0)"/>
<path d="" fill="#8775EE" transform="translate(0,0)"/>
<path d="" fill="#8675EE" transform="translate(0,0)"/>
<path d="" fill="#8B79E8" transform="translate(0,0)"/>
<path d="" fill="#846FEF" transform="translate(0,0)"/>
<path d="" fill="#8570ED" transform="translate(0,0)"/>
<path d="" fill="#8B79EB" transform="translate(0,0)"/>
<path d="" fill="#8671EC" transform="translate(0,0)"/>
<path d="" fill="#8773ED" transform="translate(0,0)"/>
<path d="" fill="#8A7AEB" transform="translate(0,0)"/>
<path d="" fill="#8676EA" transform="translate(0,0)"/>
<path d="" fill="#8976EA" transform="translate(0,0)"/>
<path d="" fill="#8E76EF" transform="translate(0,0)"/>
<path d="" fill="#8777EF" transform="translate(0,0)"/>
<path d="" fill="#8978F0" transform="translate(0,0)"/>
<path d="" fill="#8978EF" transform="translate(0,0)"/>
<path d="" fill="#8A78ED" transform="translate(0,0)"/>
<path d="" fill="#8776F0" transform="translate(0,0)"/>
<path d="" fill="#8B7AF4" transform="translate(0,0)"/>
<path d="" fill="#8878F1" transform="translate(0,0)"/>
<path d="" fill="#8C78EF" transform="translate(0,0)"/>
<path d="" fill="#8874F0" transform="translate(0,0)"/>
<path d="" fill="#8A73EC" transform="translate(0,0)"/>
<path d="" fill="#8C7AED" transform="translate(0,0)"/>
<path d="" fill="#8C79F0" transform="translate(0,0)"/>
<path d="" fill="#8C7DF3" transform="translate(0,0)"/>
<path d="" fill="#8375E9" transform="translate(0,0)"/>
<path d="" fill="#8575E8" transform="translate(0,0)"/>
<path d="" fill="#8B7BEB" transform="translate(0,0)"/>
<path d="" fill="#8877F2" transform="translate(0,0)"/>
<path d="" fill="#8976ED" transform="translate(0,0)"/>
<path d="" fill="#857AD4" transform="translate(0,0)"/>
<path d="" fill="#8877F0" transform="translate(0,0)"/>
<path d="" fill="#8A77EB" transform="translate(0,0)"/>
<path d="" fill="#8C79ED" transform="translate(0,0)"/>
<path d="" fill="#8877EF" transform="translate(0,0)"/>
<path d="" fill="#8879EC" transform="translate(0,0)"/>
<path d="" fill="#8678E3" transform="translate(0,0)"/>
<path d="" fill="#8877EC" transform="translate(0,0)"/>
<path d="" fill="#8879EE" transform="translate(0,0)"/>
</svg>
